<svg version="1.0" xmlns="http://www.w3.org/2000/svg" width="577.3" height="769.3" viewBox="0 0 433 577"><path d="M288 29c-25 3-52 16-64 32-4 6-9 16-12 26-3 8-10 45-10 49v2l-3-2c-5-5-11-3-13 3 0 3-2 3-2 0l-9-11-11-14c-4-9-13-17-17-16l-6 9c-6 12-9 15-22 20-7 2-8 2-29 2l-21 1 5 10 5 9 3 5c3 4 5 11 5 16l2 6 5 8c4 7 7 11 13 13l6 2c0 2 8 5 10 5l4-2h4c5 4 7 2 10-8 2-4 2-4 0-4l-2-2c0-2-1-1-2 2-2 4-5 6-7 5-2-2-1-7 1-9 2-3 2-4 2-10-1-8-2-11-3-9v7l-1 10c-2 4-3 10-1 12s7 1 9-1 2 0 0 4l-2 3-4-2c-3-2-3-2-6 0-2 2-2 2-5 0l-8-4-5-2h5c7 0 8-5 1-7-6-1-10-4-9-7 1-2 1-2 5 2l7 3c3 0 4 0 4 4l2 4c2 0 1-8-2-13-1-3-2-4-2-2 2 6-8 6-9 0-1-2 0-3 2 0 2 2 5 1 5-3 0-2-7-2-11 0-5 3-6 3-8 0-1-3-1-3 1-7l1-4c-1-1-7 1-8 3-2 2-2 2-2-4-1-8-1-8 8-8 6 1 8 0 3-1H88c-1 2-2 2-3 0-2-3-1-4 6-5 8-2 9-2 11 1s5 3 7 0c1-2 2-2 3-1l-3 5c-3 2-4 3-3 4v3c-2 2-1 3 2 3l3 3c2 5 5 6 5 3s-4-11-4-9l-2 1c-2 0-1-5 2-8 2-3 2-4 1-6-1-5-1-9 1-10l1 4c0 5 2 4 3-1 0-3 0-4-2-5-2-2-1-3 2-3s3 0 4 3l3 5c2 0 4 3 4 5 1 3 2 4 3 3l-1-3c-1-3-1-3 1-3l-1-2c-3-3-3-5 1-9l2-6c-1-2 0-3 2-5 5-4 5-4 2 2l-2 7-2 3c-2 3-2 3 0 7l2 3v-4c-1-1-1-3 1-5l2-3 1 2v7c-3 2 4 12 9 12s4-1-2-4c-7-4-8-6-2-6l6-2c3-3 4-2 7 1 3 2 3 2 4 1 1-2 2 0 2 3l2 4c3 2 4 3 4 6l2 6c3 3 2 4-5 2l-8-1c-2 0-3 1-1 3 2 1 1 3-3 8-5 5-5 8-1 4 2-3 3-3 3-2l-1 4v2l3-3 3-4c1-1 1-1-1-2s-2-1 2-1l4-1 4-1c3 0 4 0 4 2 1 1 0 3-1 4l-1 3 5-3 3-1c2 0 2 0 1 1l-1 3c0 2 3 1 4-1l3-3 2-1-2-1-2-1 2-1 1-9-2-13c-1-4-1-5 1-9l4-4c1-1 7 2 9 5 2 2 4 8 3 9l-6-6-7-6 1 2v11l-1 5c1 1 2-1 4-7 1-2 1-2 4 0l4 3c1 0 1 2-1 4v5l1 8c0 3 0 4-2 4l-6-3c-3-3-4-1-1 3 1 2 2 2 6 2 6 0 6-1 5-10-1-6-1-7 2-9l4-6 2-4c1 0 3 3 3 8l3 9c1 5 1 5-2 10l-3 8-3 7-1 12 1-3c0-4 6-20 8-24 3-3 3-4 1-12l-2-10-2-5-1-5c1-3 0-4-2-3-1 0-2 1-2 4l-1 3-2 5-2 4v-2l1-6c-1-5 0-10 3-14l3-6 2-6c1-2 1-2-1-1s-3 2-4 5l-2 7-2 3-1 3c-1 0-1-1 1-14 2-8 3-12 5-13 3-3 10-14 10-16 0-3 4-2 5 0v-3c-1-3-3-4-3-2l-2 2c-1 0-2 1-2 3s-1 3-3 4l-2 2 1-3c0-6 1-6 4-7 3-2 3-2 1-2l-4 2c-3 2-3 1-1-5 4-14 13-28 16-26l1-1c-1-2 11-11 20-15 18-9 40-13 56-11 14 2 35 14 49 28 8 8 8 9 14 24l5 9c2 2 1-1-1-5-3-6-3-9 0-3s3 8 4 15c0 7 0 10 2 11l1 21a226 226 0 0 1-1 30v8l-6 12c-3 2-7 17-8 26 0 5-1 8-3 10l-5 14a688 688 0 0 1-6 16c-2 1-5 6-8 11a203 203 0 0 1-16 26l-10 13-7 8-8 12c-5 7-14 14-17 14h-4c-2 2-3 2-5 0h-9c-13 1-21-4-32-19-8-11-10-13-12-14l-4-6-6-9-5-8-3-9c-2-6-2-7-3-35-1-27-1-28-3-30-2-1-7-13-7-17l-1-5-3-4h-2l2 3c2 3 2 4-1 4l-4 2c-2 2-1 4 3 4h2l-2-1-2-2h2l2-1 3 8 5 11 3 5 1 5c0 2 0 2-4-1-9-6-10-7-8-8v-2c-4-1-4 2 0 6l4 6-3 1-7 1c-3 0-4 0-7-2s-8-4-8-2l3 2 6 3c1 2 3 2 4 2 4-2 8-3 9-2h3c2-3 4-2 4 0 0 3 2 5 3 3 1-1 1-1 1 2 0 4-1 4-5 2-4-1-8-1-11 1s-4 1-11-4l-7-5c-1 0 11 11 14 12 2 1 3 1 6-1 4-2 4-2 8-1l4 2 1 16c1 15 1 16 4 26l8 13 5 9c1 2 4 7 7 9l10 13c9 12 13 15 20 18 6 2 8 2 14 2 5-1 6-1 8 1h5l6-1c6-1 13-8 21-18l8-12 6-7 9-12 8-12c3-4 3-4 5-2v-2c-2-2 0-5 6-13l3-5 4-5c3-2 4-4 4-6-1-2 0-3 2-1l4 1c4 0 4 0 3 2v3l12 6 4 2h5c3-1 7-1 8 1l-4 1-5 1c-1 1 0 1 5 1h7l-1-3c-2-3-4-4-9-3h-6l-4-2-11-5 2-2c3-1-1-4-6-4-4 0-4 0-4-3l-1-3c-2-2 1-11 4-14 2-2 3-3 3-7v-4h6l8 1c3 1 2 2 0 4-2 0-3 2-3 4l-2 4-1 3c0 1-2 2-6 2-5 1-4 2 4 2l11 4 7 4c3 1 3 1 1 3v1l6 2c4 1 6 3 7 5l3 2c2-1 2-3 0-4s-2-1 3-1c4-1 6-1 9 1l4 4 3 3c1 0 2 1 2 4 1 3 1 3 1-1l-2-7-1-4-2-3c-2-2-2-3-2-5 1-2 0-3-2-5-3-3-3-3-2-6v-7c-2-5-6-12-8-12l1-1v-5c0-5-1-6-8-13l-8-8 1-1 5-1c3-1 3-1 1-2l-5-1c-4 0-5 3-4 7v3l-4-2c-6-3-11-10-9-13 1-1 2-1 5 1 5 2 8 3 10 2l-7-4-7-3v-5l1-18c2-21-1-41-8-56-11-21-27-37-50-49-13-7-24-9-40-7zm-74 71v2l-1-1c0-2-2-1-2 1 1 2 0 3-1 4s-1 1-1-2l2-8 2-4v3l1 5zm169 6c1 6-1 4-3-3l-1-6c0-2 3 4 3 9zm-230-4c3 1 9 10 11 16l3 5 1 4 1 2 5 3c4 3 5 3 4 5h-5l-4 1c1 2 10 3 12 2 3-1 3 2 1 5-2 2-2 3-1 10l2 10 1 6c-1 1-5 2-6 0l-3-19-1-5h-3c-4 0-4 0-4-4 1-3 0-4-4-5-2-1-2-1 0-4 3-2 3-3 2-5s-2-2-8-2c-11 0-13-1-13-4l-1-4c-1-1 0-2 1-3 2-2 2-3 1-5-1-3 0-4 2-7l2-3 4 1zm-9 10-2 3h-1l1-3 1-1 1 1zm240 6v2l-1-2v-3l1 3zm-238 10 9 1c6 0 8 1 6 3l-1 3c0 2-1 2-8 2h-9l-1-5-1-8v-3l1 3c1 2 2 4 4 4zm-15 2c-2 2-2 1-1-2 1-2 1-2 2-1l-1 3zm254 0c-1 1-1 0-1-1s0-2 1-1v2zm-306 2 10 4c3 0 8 2 10 4 6 2 8 3 6 0l-16-7c-3-1-3-1 3-1l12-1h6l-3 2-3 3 3 3c3 2 3 2 2 6-2 5-3 6-5 2-1-2-2-3-4-3l-18 5c-1 1-1 1-1-1l4-3 5-3c0-2 1-2 3-1l4 1c2-1-7-4-10-4-4 0-12-3-13-6-2-3-1-3 5 0zm32 3c-1 2-3 3-3 1l4-4-1 3zm16 0v3c-1 0-4-3-4-5s3 0 4 2zm-44 5 4 2-3 2c-3 1-4 1-7-4v-2l6 2zm102 19v4l-1-9v-3l1 8zm-11-4-1 4-1-6c0-6 2-4 2 2zm-8 11-3 3-1-2c0-2 3-3 4-1zm-71 3v5c1 3 2 4 4 5 2 0 3 1 3 3s1 3 4 5l6 2c5 2 3 3-3 3h-6l-6-9-5-11c0-3 1-5 3-5v2zm300 15 9 5c5 2 8 6 8 12l4 12c3 5 4 7 3 11 0 3 0 5 2 7l2 5 1 4c2 2 1 2-3 1l-9-1c-6 1-9 0-16-8l-9-6-7-3 6-1c5 0 5 0 3-1-6-3-8-6-3-8 2-1 3-1 3-3l1-4c2-2-7-4-14-3h-6l3-8 2-11 1-3c1-1 2 0 3 3s1 4-1 7c-2 4-1 6 4 6 3 0 4 1 10 7l10 8 3 2-1-2a77 77 0 0 0-11-20c-2-5-4-6-8-6-2 1-3 0-3-1v-10l4 2 10 7zm-4 7 4 6 5 10c-2 1-7-5-10-11l-5-6c-3 0-2-2 1-2 2 0 4 1 5 3zm-4 3h-4v-2c1-1 4 0 4 2zm-27 48h-1l1-2v2zm-8 11c-1 1-1 1 0 0 0-1 0-2 1-1l-1 1z"/><path d="M154 107c4 5 5 6 5 15l2 1v-4c-1-8-2-11-5-14-5-4-7-3-2 2zM175 145h3c1-1 1-1-1-1l-2 1zM150 132c0 1 6 3 8 2v-2h-8zM303 36c0 3 0 4 3 6 4 3 5 5 2 5-1 1-1 1 1 1 3 0 3-3-1-6-3-2-4-4-4-6l-1-3v3zM325 40v1l1-1v-1l-1 1zM261 42c-2 3-1 7 1 9l2 3-2-3-1-7v-2zM324 44l-1 2 1-1v-1zM323 49l1 1-1-2v1zM244 51h3l2-2-5 2zM254 50h2l-2-1v1zM259 52l2 2-1-2-3-2 1 2zM307 52c0 2 3 6 3 5l-1-4-2-1zM327 54l3 7 3 7v4c2 1 1-7-2-12l-3-6-1-2-1 2zM265 58l1 2v-2l-1-2v2zM350 57l1 1h1l-1-2-1 1zM239 59h1l3-1v-1l-4 2zM252 58l7 4 2 2-2-3c-2-3-4-3-8-4h-4l5 1zM229 62c-3 4-3 7-1 8l1-1c-1-1 0-3 1-5 3-5 2-6-1-2zM351 64l-4 6 1-1 4-5c2 0 3-1 3-2 0-2 0-1-4 2zM233 65l-1 4c-1 1-1 2 1 1l2 1 1 1c1-1 0-8-1-9l-2 2zM240 65c-3 3-2 4 1 1 3-2 8-2 8 0 0 3 4 9 5 8 2 0 1-1-1-4l-2-5c1-1 0-2-2-2-5-1-7-1-9 2zM267 65l2 2c1 0 0-3-2-3v1zM304 68c-3 5-4 6-13 5h-4 15l5-9-3 3zM263 66l2 4 1 3v-3c-1-4-3-6-3-4zM350 71l-5 4v1c0 1 4-1 8-6 3-4 1-4-3 1zM360 70l4 5 1 2c2 0-2-6-5-8l-3-2 3 3zM270 70l3 1 3-1-3-1-3 1zM312 71c-2 0-4 2-5 4l-2 2 2-2 6-3c3-2 2-2-1-1zM316 72l-2 4c0 2 0 2 1 0 0-2 1-3 3-3l2-1 2-1c2-1 2-1 0-1l-6 2zM327 73l4 1-2-1-3-2 1 1zM323 73v1l5 3c4 3 4 2-1-2l-4-2zM272 75c11 0 12 1 14 3l3 4 5 9c1-1-4-12-7-14-3-3-3-3-15-3h-12l12 1zM236 78l-1 4v1c2 0 3-3 2-5-1-4-2-4-1-1zM254 77l1 1c1 0 2-2 0-2h-1zM332 76c0 1 3 2 7 2l3-1h-3l-5-1h-2zM229 78c-1 1 0 1 0 0 2 0 3-1 1-1l-2 1zM303 78l-6 1-5 1h4l7-2 1-1-1 1z"/><path d="M308 78v3c3 3 2 5-1 9l-4 4h-12c-9-1-13-1-17-3l-12-3c-6 0-6-1-7-3 0-4-3-4-7-2l-3 4-2 2c-2 1-2 2-1 2l5-5c3-4 5-4 7 0 1 4 1 4 6 4s9 1 16 4c4 1 22 3 23 2l3-1c2 0 4-1 7-5 5-5 6-5 7 3 1 4 2 5 4 7 3 3 4 3 7-1 3-2 3-3 2-3l-2 1c-1 3-5 2-7 0l-2-4c0-5-2-8-6-11-4-2-4-2-2-4 2 0 2-1 1-1l-3 1zM334 80l10 1h8l-2-1h-16zM226 83c-2 2-2 2 1 2 5 1 6 1 3-1-1-1-1-1 1-1v-1c-2-1-3-1-5 1zM352 84l1 2h1l-1-3-1 1zM368 85l2 9c1 6 1 7-1 10-2 4-2 5 0 7l2 2-1-3v-4l2-6-3-17-1 2zM339 87c0 2 0 2 1 1 2-2 4-1 10 1l6 3c2 0 7 10 7 14l2 5 2 2-1-3-2-6c-1-8-3-12-6-13l-7-3-8-3c-4 0-4 0-4 2zM235 87v8l1-1 2-4c2-3 2-4 0-4l-3 1zM334 88l-1 3c-2 1-3 5-1 5l2-4c2-2 2-3 1-4h-1zM229 94v8l3-1c1-2 0-11-2-12l-1 5zM247 96c-2 1-5 2-6 4l-4 2-3 1 2 1 8-4 3-2h5c2 1 2 1 2-1-1-2-4-2-8-1z"/><path d="M257 96c-2 2 0 2 8 2 7 0 10 0 16 2s9 2 14 2l8-1 4 4 2 3-2-4-2-4h2c2 0 3 2 6 10l3 3c2 1 2 2 2 5l1 3c1 0 4 7 5 15 1 4 2 5 2 3 0-4-3-17-5-18v-6c2-1 0-2-3-2l-4-4c-2-4 0-6 4-4l14 5c2 2 2 12 1 14s-2 5-1 11c0 8 0 9 3 12l21 12c1-1-3-3-8-6-13-8-14-9-14-18-1-6 0-8 1-10l1-8c-1-8-2-9-14-13-5-1-9-3-9-4 0-2-5-3-10-2-6 2-17 2-21 0l-12-2a231 231 0 0 1-13 0zM223 101l-1 2 4 3c6 8 6 8 16 8 9 0 9-1-1-3-9-1-10-1-10-4-1-3-3-4-3-2l-1 1v-3c0-3-1-4-4-2z"/><path d="M254 103c-1 1-1 1 0 0 3-2 14-1 18 2l10 1c6 0 8 0 10 2l4 2v1c-1 1 0 2 3 4 4 2 5 4 3 7l-1 2 2-2c1-3 0-7-4-8-6-2 1-5 8-3h2l-2-1-16-4c-3-2-5-2-10-1-5 0-6 0-8-2-3-2-17-3-19 0zM332 102v1l1-1h-1z"/><path d="M257 105c-6 0-14 3-14 4s2 1 9-1c8-3 9-3 15 0 3 2 5 3 6 7l7 9c1 0 1-1-1-2l-4-7c-3-8-11-11-18-10zM334 106h1l1-1-1-1-1 2zM216 108c2 2 2 4-1 4-2 0-4 2-3 3 2 1 6-1 7-4 2-5 3-3 2 5l1 8 1-9v-9h-4c-4 0-4 0-3 2zM374 115l-1 2 3-2 2-2-4 2zM311 115l2 3 1 2-2-4-1-1z"/><path d="m253 117 5 1c4 0 5 1 5 5v5l-1 2 2-1c2-1 2-3 1-3l-1-4c0-4-1-5-7-6l-4 1zM367 119h1l1-1h-1l-1 1zM356 121c-2 1-3 2-3 4v2l1-2c1-3 7-5 10-4l1-1c-1-2-5-1-9 1zM377 124l2 2-2-2-2-3 2 3zM308 125l-4 1-2 2 1 1 4-3c6-3 6-2 6 8 0 4 0 9 2 13 2 8 3 9 1 0-1-4-2-8-1-12l-1-8c-2-4-2-4-6-2zM281 127l8 4 6 4 3 1c2 0 3 1 3 5 1 8 2 9 8 13 8 5 9 8 9 20 0 9 1 10 1 6v-21c0-1 0-2-2-2l-8-5c-6-5-6-5-6-10s-2-8-5-8l-2-2-4-2-4-1-5-3h-2zM219 127v2c1 0 2 2 2 8 1 8 1 8 4 10 3 1 3 1 3-1 0-1-1-2-3-2s-2-1-2-8c0-5 0-7-2-8-1-2-1-2-2-1zM240 128c-3 3-2 4 1 1l1-3-2 2zM245 126c0 2 5 11 7 11h1l-4-6-4-5zM375 129c0 1 0 2 1 1v-2c-1-1-1 0-1 1zM355 132l1 7 1 6-2-14c-1-1-1-1-1 1zM217 133v1l1-2-1 1zM228 133c3 3 11 3 11 0h-1c-2 1-7 1-10-1l-2-1 2 2zM267 133l4 4 2 2-1-3-3-3h-2zM258 136c-3 2-2 3 1 0 2-2 3-1 6 2l4 4 2 4h1c1-1 1-2-2-4l-4-5c-2-3-6-3-8-1zM374 141c0 1 0 2 1 1v-2c-1-1-1 0-1 1zM236 142l2 4v-1l1-1c2 1 2 4 0 4v1l3 2-3 12-1 8 1 6 1-6c-1-6-1-6 1-6s2 0 1-2v-6c2-8 1-13-3-15h-3zM324 145l1 8 1 5 1 3v-12c0-5 0-6-2-7-3-1-3-1-1 3zM360 143v1c2-2 3-1 6 10 2 5 3 7 3 5l-7-18-2 2zM276 145c0 2 1 3 1 1v-3c-1-1-2-1-1 1zM119 146l-1 4c0 3 0 3 1 1 1-1 1-1 1 2 0 5 2 9 3 8 2-1 1-9-1-11l-1-3 2-1h-4zM158 146c-4 1-3 5 1 7l3 4c0 2 2 3 2 0 0-2-3-6-5-6-3 0-2-2 1-3 5-3 4-4-2-2zM373 147l1 1h1l-1-2-1 1zM274 152l2 4c0 2 0 2 1 1 1-2-1-6-3-7l-2-1 2 3zM142 151l-2 2-4 2c0 1-1 2-2 1-2-1-2 3 1 10 2 3 3 9 3 12l4 8 2 2-1-3c0-4 0-4 5-9 4-4 5-5 5-8 0-4 0-4-3-4l-7 1c-2 1-2 1-4-1l-1-5c0-3 1-4 3-4s3-2 2-4h-1zm8 17c0 3-2 6-5 7-4 2-4 2-4-2 0-3 0-4 4-5 5-2 5-2 5 0z"/><path d="m229 152 6 1c2 0 2 0 1-1l-5-1c-4 0-4 0-2 1zM373 157l-1 5 2-5v-5l-2 5zM127 156v6c1 5 3 4 3-4 1-6-1-7-3-2zM115 156c-1 2 4 9 7 10 4 2 5-1 1-3l-5-5c-2-4-2-5-3-3zM282 156l5 4 6 4c3 1 7 5 11 10l4 3 5 6-2 1c-3 0-4 2-4 6l-2 4v1c4 0 5-1 4-5 0-3 0-4 2-4 4-1 4-5 0-8l-11-11-6-4c-2 0-4-1-5-3l-5-4h-3zM278 160l13 15 2 2-1-2c-1-3-12-14-14-15-1-1-1-1 0 0zM321 161l1 7 1 5v-6l-2-7c-1-1-1-1-1 1zM330 160l6 2 5 1 3 5c3 5 3 11 0 13l-2 4-1 4-2 4-1 7c-1 3 0 5 1 10 2 7 2 6 14 7h8a432 432 0 0 1-12-1l-7-1-1-6c-2-5-2-7-1-9l1-5 2-5 1-5c0-3 0-3 4-3 3 0 5-1 8-3l4-4v-1l-4 3-6 3c-2 1-2 1-2-3l-3-11c-4-5-4-6-7-6h-8z"/><path d="M362 163c2 5 2 14 0 23l-4 7-2 4-1 3-1 5 2 6 2 1-1-2c-2-1-3-8-1-8l1-4c0-4 0-4 2-4l2-1 2-9c3-8 3-16 0-21l-2-3 1 3z"/><path d="m356 162 3 5 1 4-1-4c0-4-1-6-4-6l1 1zM369 168l1 2v-2h-1zM368 178l-2 9 2-4 2-10c-1-1-1 1-2 5zM322 186l-1 23c2 2 5 1 6-1 1-3 2-2 2 1l2 5 1 5h1c1-1 1-3-1-6l-2-6c1-1 0-3-2-3l-2 3-2 2-1-17v-16l-1 10zM203 182l-1 5v1c2 0 2-1 2-5v-5l-1 4zM151 182v5c2 0 9-4 7-5l-3 1c-2 1-2 1-2-1v-2l-2 2zM236 181l-1 3c0 2-1 5-3 7l-3 4 2 5c1 4 3 5 7 7l8 3c3 0 2-1-4-3-8-3-8-4-10-8-1-4-1-4 1-6 3-3 4-7 3-8l2-3 3-1h-5zM294 181h2c1-1 0-1-1-1s-2 0-1 1zM170 185l-7 3c-1 2 4 2 6 0 2-1 3-1 4 2l8 2 8-1-5-1c-6 0-9-1-9-3l2-2 5-2 3-1h-4l-11 3zM331 186c0 1 0 2 1 1v-2c-1-1-1 0-1 1zM317 185v9l-1 8 1-6v-11zM156 188h-7l-4 1 4 1h2l-2 2c-4 4-2 4 3 0l6-4 2-1-4 1zM263 188l-6 3 14-5-8 2zM278 187h4c1-1 0-1-2-1-3 0-3 0-2 1zM291 188c-1 1-2 2-3 1v1h4l1-3-2 1zM168 192l-7 2c-3 1-4 2-6 5l-6 8c-4 4-4 4-10 4l-9-2-8-2c-4 0-4 0-4 2 0 4-1 6-5 9-3 2-3 2-3 0l3-4c4-2 5-4 1-3s-4-2 0-4 3-4-1-2c-3 1-5 5-6 12v6h-4c-12 2-16 5-21 15a1694 1694 0 0 0-74 72l-8 10h4c1-1 1-1 1 1v1c1-1 2-2 1-3 0-2 2-4 8-11l10-12c3-4 7-7 9-6 3 2 4 1 1-1-1-2-1-2 4-7l10-8 15-13 13-11c4-2 4-2 6-1l2 7 1 4v-4l-1-8c-2-4-1-5 4-5s5-2 0-3l-4-1 4-5c2-3 4-4 5-3l2-1-1-1c-3 0 0-1 6-3l7-2c2 0 2 0 1 2l-5 3c-4 1-5 2-5 5l-4 4c-4 0-4 2 0 2 3 0 5-1 7-5 0-2 2-3 5-4s4-2 5-5 3-6 5-7l5-6c1-4 2-4 9-1 3 2 6 2 11 2 5-1 6-1 9-4l5-3v-2c0-2 1-3 3-1 1 1 1 1 0 0-1-3 2-5 6-5s5 1 8 4l5 3 4 2 2 1-2-4-3-4 5-1c3-1 4-1 3-3-2-2-5-2-7 0-2 1-3 4-1 5s1 3 0 3l-4-3c-2-3-6-5-10-5-3-1-3-1 1-2l5-2c0-2 0-2-3-1zm15 6-1 1-2-1 2-1 1 1zM255 192c-1 1 0 8 1 10l5 3 4 2h3c1-1 0-1-4-3-7-2-8-2-8-8l-1-4zM332 195v4c1 0 2-3 1-4l-1-1v1zM276 197l16 1 14 1-12-1a215 215 0 0 1-18-1zM363 200l-2 7-1 3c1 1 4-11 4-13l-1 3zM205 203l2 15c0 7 1 11 3 14l2 7 2 5 3 7c0 2 1 4 3 5 3 2 8 12 11 20 1 6 6 11 10 14 5 2 8 1 10-2s10-6 16-7c4-1 5 0 9 3 5 4 10 9 11 12a137 137 0 0 1-27 1c-4-1-5-1-7 1s-2 3-1 9l1 6 6 1 10 2c4 0 5 2 2 2h9v2c-1 4 0 4 2 1 3-3 2-5-2-5l-13-3-12-3-1-5c-1-4-1-5 2-6h6l12 1h12c3 1 5-2 4-5l-9-10c-8-7-8-7-13-6-9 1-15 3-18 7l-5 4c-3 0-9-8-11-14a174 174 0 0 0-8-18l-3-3-3-3c-5-9-6-12-6-14l-3-7c-2-4-2-6-3-18l-2-14c-1-1-1 0-1 4zM274 202c2 5 7 7 13 8h5l2 6c4 10 5 8 1-2-2-5-3-6-8-6-6 0-9-1-11-5-3-5-5-5-2-1z"/><path d="m328 200 1 1 1-1-2-1v1zM185 208l1 2v-3c-1-3-2-2-1 0zM315 210c0 6 1 9 4 10 1 0 3 0 4-2h4c4 2 4 1 0-1-4-3-6-2-6 0l-1 2c-3 0-4-4-3-9v-5l-2 5zM337 211c0 1 0 2 1 1v-2c-1-1-1 0-1 1zM251 213c-1 1-1 1 1 3l18 6c2-1-1-2-7-3-9-3-12-5-8-5s11 3 17 6c5 2 5 3 5 6l1 3c2 0 0-8-2-10-3-2-11-6-18-7l-7 1zM278 215c2 2 3 2 2 0l-3-1 1 1zM221 216c-2 1-1 2 1 1l4 3 3 2-3-4c-4-3-4-3-5-2zM303 219l-2 5 3-3 2-4c2 0 2 2 0 7-3 7-2 7 1 1 2-5 2-7 1-9-2-2-3-1-5 3zM220 223l2 6 3 8c1 5 5 14 5 11l-2-6-2-8-2-5-2-6-2-4v4zM280 221l7 5 6 5c2 5 1 11-2 16-2 5-3 7-3 12 0 12-1 12-8 16-3 1-4 1-3 2l4-1 5-2c2-1 3-5 3-14 0-6 0-7 3-12 4-5 4-5 3-12 0-7 0-7 2-7s2 0 2 2l-1 6-1 4 2-4c1-2 2-5 1-7 0-2-1-3-5-3l-7-3c-4-3-9-5-8-3zM336 221c-5 2-3 2 5 2l8-1-3 2c-4 3-6 5-6 8-1 4-3 4-3 0l-1-2c-1 0-2 2-2 5l-3 3-6 2c-4 2-4 2-7 0s-4-6-1-8c2-1 9-4 16-5l5-1h-5c-5 0-16 2-19 4l-1 5c0 4 0 5 4 8s8 4 7 2l5-4 7-2h4l4-1c2-2 2-2 0-2-4-1-4-2-1-6 1-2 4-3 8-5l7-4h-22zM211 223h1v-2l-1 2zM229 227c0 6 3 9 15 15 2 0 3 2 4 3 2 6 3 7 8 10 4 2 5 3 5 5l1 3v-2c0-5 0-5-6-7-4-3-5-4-6-8-1-2-3-4-8-7-9-5-11-7-12-12-1-3-1-3-1 0z"/><path d="m243 225 4 4 4 4c0 1 2 2 6 2l14 1h10c3-2 3-2 2-4l-3-1c-2 0-2 0-1 1 2 2 2 2 1 3l-8-1-10-1h-5l5-2 6-3 3-2 1-1-1-1-4 1-3 2c0 1-1 2-5 2-5 0-7-1-15-5l-1 1zM348 232c0 4 1 5 2 3l-1-4c-2-3-2-2-1 1zM368 230l6 3c8 2 12 4 18 9l6 5 10 10-2 1c-3 1-2 1 3 3 3 0 3 1 3 2l-2 6c0 4 0 4 3 5 3 2 4 2 4 5s1 4 5 6c5 3 7 2 4 0l-5-2c-2 0-3-3-2-3 2-1-1-5-5-7-3-1-4-3-2-7 1-3 1-3 4-2 2 0 6 1 8 3 6 2 8 3 6 0-2-2-8-5-12-5-3-1-4-2-4-4l-4-5-6-4c-2-3-21-15-25-17-5-2-12-3-11-2zM303 238l-3 14a367 367 0 0 1 0 13c0-7 2-21 3-20s1 0 1-3c0-5 0-5 3-5l3-1-4-1-3 3zM346 241c-2 3-3 7-1 7l1-1c-1-1 0-2 1-3l1-4c0-2-1-1-2 1zM262 242c0 3 0 3 3 3s3 0 4 6c0 4-1 6-2 6l-1 2 2-1c2-1 2-2 2-7l-1-7h-3c-3 0-3 0-3-3v-2l-1 3z"/><path d="m307 240 4 4 3 5c3 2 3 7-1 10-4 5-4 18 1 20 1 0 4-5 4-8 0-2-3-6-5-6s-1-2 1-4c3-1 5-6 4-10s-8-12-11-12c-2 0-2 0 0 1zm8 33c0 3-2 1-2-2s0-3 1-2c1 2 2 3 1 4zM336 244l-5 1h-1c0 1 3 1 8-1l2 1v1c2 0 1-2-1-3-1-1-2 0-3 1zM207 247l3 13c5 16 6 14 2-2-2-10-3-13-4-13-2 0-2 0-1 2zM295 250c0 6-3 19-4 23l-5 7c-3 5-2 6 1 2 7-9 8-12 9-24v-12l-1 4zM221 248l2 3 2 2-2-3c-1-3-2-4-2-2zM338 250l-2 1v1c2 0 4-2 3-3l-1 1zM77 252l-3 11c-1 4-5 6-11 6-4 0-6 1-6 5v2l2-2c1-2 2-3 5-3 4 0 4 1 2 8l-1 4 3-7 4-6 6-11 2-8c0-2-2-1-3 1zM233 252l2 5h1l-2-5-1-3v3zM329 253c-4 2-4 2-4 9l-1 10v3c1 0 2-6 2-13 0-5 0-6 2-7l4-2c2-2 1-2-3 0zM358 257h1l2-2h-1l-2 2zM363 257l1 1v-1l-1-2v2zM236 263c0 4 3 13 6 15l3 2-2-3c-2-2-4-4-5-10l-2-4zM393 262l-1 2 3-1c3-2 1-3-2-1zM266 267l-3 7v1c2-1 5-12 5-13-1 0-2 2-2 5zM301 269l-1 9 2-14-1 5zM80 264l-2 5c-1 2-2 5-4 6l-1 2c1 1 1 1 3-1l5-13-1 1zM401 265l-2 2c0 1 2 0 3-2l1-2-2 2zM401 272l2 4v-3l-2-3v2zM296 272l-2 5-1 2 2-2c0-2 2-3 3-4v-2l-2 1zM49 276c-4 4-7 10-7 15 1 2 0 3-2 3-3 1-3 1 1 1h4v-5c0-7 5-15 10-14v-1c-1-3-2-2-6 1zM297 278v12l1-4v-13l-1 5zM392 278h1v-2l-1 2zM401 280l4 4c1-1-1-4-4-6l-3-2 3 4zM345 279c0 1 0 2 1 1v-2c-1-1-1 0-1 1zM432 279l-1 5c0 2 0 2 1 1l1-5c0-2-1-2-1-1zM213 278l2 1c0 1 1 1 0 0l-2-1zM220 281c1 2 2 3 2 1l-3-4 1 3zM319 280c-4 2-7 3-7 1s-2-1-2 1l-4 7c-5 5-5 6 0 5 3 0 3 0 2 2-3 7-9 14-14 17-4 2-5 2-6 0l-6-1h-5l5 1 5 3c2 1 3 1 8-1l4-2v2c-1 3 1 2 2-1l4-7 2-4 2-2 4-2 2-2h-4v-6c-2-4-1-8 1-8 2 1 10-3 10-4l-4 1zM354 280l-1 2 2-2 1-2-2 2zM73 280l-4 3c-2 1-3 3-3 5s0 2 1-1l3-4c2 0 5-3 4-3h-2zM292 283l2 6v-5l-2-6v5zM225 283c0 2 2 4 4 4l5 3 4 3c2 0-5-7-8-8l-3-2c-2-2-2-2-2 0zM299 283l1 4 1 1-1-4c0-2-1-2-1-1zM341 287l-6 11c-3 7-3 7-4 4v1c1 6 1 6 4-3l6-12 4-6-4 5zM61 285c-3 1-3 1-1 5 1 5 3 5 1 1v-4l3-3-3 1zM410 285l2 1 6 3 5 5v4c1 1 1 0 1-2 1-4 1-4-5-8-4-2-10-5-9-3zM245 286v1l2-1 1-1-3 1zM391 286h1l1-1h-1l-1 1zM406 287l1 1-1-2v1zM349 290a101 101 0 0 0-8 17l4-8 5-8 2-3-3 2z"/><path d="m318 291-4 3c0 1 5-1 7-3s1-2-3 0zM226 293c1 2 8 4 11 4 2 1 3 1 3 5l1 8c0 5 2 10 2 5l2-4c2-2 1-16-2-17-1 0-1 1 1 3l1 8c-1 6-3 7-3 1v-7c-1-3-2-3-5-3l-5-2-6-1zM295 294h-2l-1 1 2 1c5 1-1 6-10 9-8 3-9 5-1 3 9-3 14-6 15-9l2-5c0-3-3-3-5-1z"/><path d="M428 298c-2 7-6 13-7 13-2-1-3-4-3-9l-3-6-3-3 2 4 3 6c0 6 2 9 5 9 2 0 2 0 2 3l1 5 1-7 2-10 1-5 1 1a306 306 0 0 1-1 54l-1 2c2-1 2 2 2 51v52l-6-7a677 677 0 0 0-29-32l-5 5a321 321 0 0 1-10 15c0 3-8 14-9 12l-2-9a177 177 0 0 0-35-69c-2-1-18 6-47 21l-13 6a536 536 0 0 1-33 13c0 2 1 4 5 9 12 12 14 18 8 26l-4 4-1-4c0-8-2-12-7-17-4-4-6-5-8-5-3 0-29 5-33 7-3 1-3 5 2 9 3 3 3 4 3 7l-2 5c-1 1-6-6-9-12-5-12-4-20 6-31 4-3 7-7 7-8 0-2-2-3-10-6l-17-9c-16-9-28-14-39-15l-8-3c-7-3-10-1-21 16-6 11-10 21-14 36l-3 10-4-11c-2-8-2-12-2-23 0-13 0-13-2-13a149 149 0 0 0-29 8l-6 2-6 1c-3-1-12-10-19-18l-10-10c-4-2-9-9-11-12 0-2 0-2 2-1l10 8 10 7c4-1 3-3-2-8l-5-7 10 2 2 1c1-1-4-4-9-5l-8-3c-6-3-4 0 4 8l8 10c-1 0-3-1-13-10-5-6-6-6-9-6l-4 1c-2 0 9 13 14 17l8 8c4 5 3 5-12-9-9-9-14-12-13-9l37 33c6 4 8 6 4 6l-7 4c-11 9-14 11-15 10l11-10c2-2 4-7 3-10l-2-2c-2-1-2-1-1 1s2 3 1 5-4 6-6 6l-7 7-1 4-1 2-3-3-3-2 6-6 7-6c2 0 4-5 3-7l-2 2-3 3-4 4-6 6-3 2-3-2-2-2c2 0 6-4 6-6l1-2c2-1 2-5 0-9l-3-8c-1-7-4-13-6-13l2 7 4 12 1 6 2 1c0 3-6 9-8 10l-2 2c0 2 2 4 8 8l11 11 10 10 7 8 2 2-2-2-3-1c0 2 2 3 3 3l19 9c16 8 35 15 42 16a294 294 0 0 1-50-23c-10-6-28-23-28-27 0-1 3-4 11-9 12-9 16-11 19-11l6-1a175 175 0 0 1 23-8l9-2v14c0 13 1 16 4 27l11 40c1 2 10 6 24 10 12 3 15 4 26 10 8 4 10 4 21 5l15 3h7l12 4a143 143 0 0 1 20 5l8 5a617 617 0 0 1 50 51l10-2 12-2h4l4 9 3 9h22l22 1-21-1h-20l-1-3v-12c0-8 0-10 2-13 2-2 3-4 5-4v1c-3 2-2 3 1 2 3-2 4-1 8 7 2 3 4 6 6 6l2 2c0 2 8 1 14-1 7-3 20-3 30-1l6 1 13-9a181 181 0 0 0 24-16l1 8 1 7v-8c0-10-2-11-8-5-7 6-30 20-32 20a449 449 0 0 1-32 0l-11 2-5 1v-4l9-28a1767 1767 0 0 0 20-59l7-20 8-17 6-12 2 4c3 4 15 18 28 30l7 7v-83l-1-85c-2-1-2-1-3 4zm-295 75 4 2c7 0 21 4 30 9l24 12 14 7-6 7c-8 8-9 11-9 20s3 16 8 22 7 6 9 2c3-6 2-8-1-13l-4-5c0-1 27-7 32-7 3 0 8 5 10 10s2 13 1 17c-2 2-2 3-1 3 3 0 12-8 14-11 4-8 2-15-8-27l-6-8 9-3 14-5 7-2 43-20c15-8 16-8 17-6l22 38c9 18 11 24 11 39v13h-8a563 563 0 0 1-107-1 271 271 0 0 1-73-12c-13-3-16-4-30-4-17-1-19-2-23-5-2-2-11-6-19-8-8-3-8-3-5-15 4-15 7-21 15-36 8-13 13-16 16-12zm252 61-1 3c-2 1-2 1-1-1 1-3 2-4 2-2zm-287 4c0 3 6 18 11 26l3 4h-7l-4-13c-5-17-5-19-4-19l1 2zm9 3c3 2 3 2 3 8 0 7 3 14 6 14 5 0 8-8 6-14-1-3-1-3 1-2 3 0 3 2 3 16l1 12c2 1 9-8 12-15 2-5 3-7 5-7h7c1 0-2 5-7 10-8 11-14 15-18 13l-4-1c-4 0-13-4-10-4l6 1c5 3 6 2 6-2l-1-6c0-1-1-1-3 2l-3 2-3-3c-3-3-11-18-13-23 0-4 1-4 6-1zm9 2c2 1 3 2 3 7 1 9-2 13-5 7l-1-15 3 1zm258 17c-4 8-5 11-7 11-3 0-3-1 1-3 2-2 2-3 2-6l2-7c2-4 6-8 7-7l-5 12zm-237-8c2 0 2 0 1 4l-7 13c-2 1-2 0-2-8l1-9 3-1 4 1zm25 5 3 4-5 4c-3 2-4 4-4 6 0 4 3 9 7 12 5 3 17 1 19-4 0-3-1-8-4-14l-3-9 11 6 1 9c1 7 1 8-1 10-3 4-7 6-13 6-7 2-12 0-18-7l-5-7 2-8 2-7 3-6 5 5zm9-2 1 3 4 8c4 10 4 13 0 15-8 3-14 0-17-7-1-3-1-3 1-6l4-3 3-2c1-2 1-3-1-5-4-5-4-5 0-5l5 2zm29 7c1 1 1 1-1 1l-5 1c-1 2-1 7 1 9s3 2 11 0c7-1 8-1 8 4l-3 11-3 7c0 2-25-4-26-6v-1c2 0 7-5 8-8l1-6-1-9-1-5 4 1 7 1zm-51 4c-3 6-2 8 1 13 4 5 4 7 0 4l-9-4-6-1 7-8 8-8-1 4zm74 2c12 2 23 6 23 7 0 3-3 4-7 1l-10-4c-7-2-7-1-7 11v10l-4 1c-6 0-8 0-5-4 2-3 4-13 4-18 0-3 0-3-13-1h-8c-2-2-1-4 1-5 3-1 16 0 26 2zm-101 1-1 1h-1l1-1h1zm131 3c-3 2-3 2-5 1-1-1-3-3-5-3-2-1-1-1 5-1h8l-3 3zm18 1c4 5 9 13 10 20l1 5h-5c-5 0-6-1-4-4l1-4c-1-3-3-4-15-4-8 0-10 1-10 7v4h-4c-4 0-5 0-5-2 0-3 7-13 13-19 5-5 6-6 10-6 3 0 5 1 8 3zm13-2 16 2c12 1 13 1 18 4 6 4 6 4 6 13v6h-6l-6 1 3-5c7-10 3-15-15-17h-6l1 6 2 10 1 4-5 2-7 1c-2 0-2 0 0-3 2-2 3-5 3-9 0-7-1-10-4-12-2-1-2-1-1 2 2 3 3 14 1 16-1 1-1 0-2-3-2-6-3-10-8-15l-3-4h5l7 1zm51 2-4 4-4 3-5-3-4-4h17zm27 0 2 2-9 1c-14-2-19 1-21 9-1 3 1 8 4 8l16 3c2 0 2-1 2-4 0-5 0-5-3-5-8 0-14-3-11-6 0-1 2-1 5 1 5 3 12 3 15 0l3-4 1-1c2-2 1 3-1 5-3 3-5 7-6 12v4h-9c-11-1-16-2-19-6-5-5-4-8 3-14 3-2 6-5 8-5h20zm-126 6 7 4-2 4-4 7v3h-7c-6 0-7 0-6-1l1-11c0-12 0-12 11-6zm123 0c3 1 2 1-1 2-5 1-7 1-11-2-2-2-2-2 4-1l8 1zm-48 1c5 2 5 5 1 11l-3 6-5 1c-5 0-5 0-4-2v-5l-2-8-1-5h5l9 2zm36 9c4 0 6 1 6 2 0 2 0 2-6 2l-8-2c-2 0-3-3-2-6 0-2 0-2 2 0 2 3 4 3 8 4zm-81 0c5 0 6 2 4 7-2 3-2 3-6 3l-8-1c-3 0-4-1-4-4-1-5 1-6 6-6l8 1zm70 9 6 2h-10l-10-1 2-1c2 0 3-1 3-3s0-2 2 0l7 3zm-105 2 50 1 74 3c1 1-12 16-24 29l-11 11-13 4-18 7-4 2-3-3-2-2 2-2 9-1 12-2 5-2-5 1a483 483 0 0 1-25 1l3-2h-3c-3 0-6-2-16-13l-13-12v-7c0-6-1-6-4-8-2-2-7-3-19-4a587 587 0 0 1 5-2zm9 5c3 0 6 4 6 7l-1 3-5-4-7-6-2-2 3 1 6 1zm111 24a309 309 0 0 0-9 27l-4-5c-1-3-4-6-7-8l-4-3 7-6 14-16 9-10-6 21zm-34 22-1 6v3l-2-2c-2-3-3-3-7-3l-10 1-7 1 16-6 10-3c2-1 2-1 1 3z"/><path d="m136 379-1 4 1 4c1 2 0 3-3 1h-3c-2 1 2 2 8 2 5 0 5 0 4-2-7-4-7-6-4-9l1-2-3 2zM128 381l4 2v-4l-1 1h-3l-2-2 2 3zM148 382l-1 4c-2 3-2 4 0 4s2 0 2 5v6c1 1 0 2-2 2-3 1-4 3-1 4 2 1 5-3 5-7v-10h8l9-1c1-1 1-1-1-1h-10c-7 0-7 0-7-2l-1-6c-1-1-2 0-1 2zM328 387l3 6 3-4c2-2 2-2 0-1h-3l-3-1zM120 390l-2 3c-2 2-2 2-2 6 1 4 1 5-1 8s-2 5-2 9c0 6-2 10-6 9-2-1-2-1 0 2l2 4 1-2 2-4 2-8c1-5 1-8 3-10 2-3 2-3 1-7v-5l2-1 3-2c2 0 3-2 0-2h-3zM127 392c-1 1 0 1 1 1l3-1-2-1-3 1zM172 391l2 3v6c-2 4-3 5-4 2-1-2-1-2-1 0l2 4h3c-2-1-2-1 1-5 2-3 2-4 1-6l-4-4zM326 395l1 3h1l-1-4c-1-1-1-1-1 1zM134 395c-2 1 0 17 2 20v1c-1-4-2-17-1-20 0-2 0-3-1-1zM301 397c1 4 2 5 5 5 2-1 3 2 0 6l-2 7c0 3 0 4 2 4 2 1 14-5 14-6l-2-3v-3h4c2 0 3 0 4-3 2-3 1-4-1-1l-5 2c-4 0-4 0-4 2l1 4c2 1 2 2 1 2h-2c-1-1-1-1-4 2-2 3-7 4-7 2l3-10 3-9-3 1c-3 2-3 2-6-1-2-3-2-3-2-1z"/><path d="m121 401 3 2c3 1 3 2 2 4 0 2 0 2 1 1 2-3 1-5-2-6-3-2-4-2-4-1zM185 403c-4 0-4 1-5 4l1 3c2 0 2 0 1-2-2-2-1-3 3-3l4-1 3 2 3 1-5-5-5 1zM274 407l-1 2c0 2-1 2-6 2-8-1-6 1 2 2l6-1c0-2 0-6-1-5zM154 410l1 5 1 1-1-5c-1-3-1-3-1-1zM341 409l-6 8-2 4-1 2-1 3c-2 4 0 11 2 13h1l-2-6c-1-4-1-4 1-6s2-2 1-3v-2l2-3 1-2 2-3c1-4 4-5 7-4 2 1 2 1 1 6 0 4 0 4 1 3 2-2 2-7 1-9-1-1-6-2-8-1zM175 410v1l3-1-1-1-3 1zM123 412l1 1 1-2c-1-2-2-1-2 1zM146 411v1c2 2 0 3-2 2l-3 1c-1 1 0 1 1 1l2 1-2 1c-2 0-4 2-3 4 1 1 9-7 9-10v-2l-3 1zM150 415c-1 1-1 1 0 0l2-2-2 2zM248 415l1 1 1-2-1-1-1 2zM255 414l3 11c2 3 2 3 2 1l-1-4-1-2c1-3-2-8-3-6zM178 416v1l1-1v-2l-1 2zM183 416c-1 1 0 2 1 2l1 2v1-6c-2-1-2-1-2 1zM126 416h-4c-3 0-4 0-3 1l4 1c1 2 4 1 4-1v-2l-1 1zM171 417c0 2 0 2 1 1v-2c-1-1-1-1-1 1zM168 420l-1 3v1l1-3v-1zM161 420l2 1 1-1-1-1-2 1zM117 422l1 3s2 3 5 4c3 2 5 4 5 6h1c2-2 1-3-2-5-5-2-8-5-8-8l-1-2-1 2zM144 423c-1 3 0 5 2 5l3 2c2 3 0 7-2 7l-1 2 1 5c0 4 4-8 4-12l-1-4-1-3c1-1-1-2-1 0-2 2-3 1-2-1l-1-3-1 2zM309 428h2c2 0 7 2 8 4l1 3 1 3 2 3c2 1 5 12 4 14-1 1 0 2 1 1v-14c1-1 0-1-2-1-3-1-6-6-6-9l-3-4c-3-1-8-2-8 0zM178 433c0 2 0 3 1 2v-4c-1-1-1 0-1 2zM309 432l-4 5-3 4 8-8v-2l-1 1zM358 434c-2 3-3 6-1 5l3-8c-1 0-2 1-2 3zM234 433l2 3h3l-4-3h-1zM290 437l3 3-1-2-2-1zM297 439c-2 3-1 4 1 1l1-3-2 2zM184 439l1 1-1-1c-1-1-1-1 0 0zM283 440c2 4 2 4 1 1l-2-3c-1 0-1 1 1 2zM339 442c0 1 3 2 9 2l6-1-15-1zM285 446l3 1c2 1 2 1 1-1-3-1-4-2-4 0zM212 450v4l4-2 4-3c0-1-1-2-4-1h-3l-1 2zM349 454l1 4v-9l-1 5zM298 451c0 1 0 2 1 1v-2c-1-1-1 0-1 1zM344 452v4c0 2 0 3-2 3l-3 3h4l1 2 1 1v-2l1-5v-6l-1-2-1 2zM332 456v9l2-4 2-4c1-3 1-3-1-3l-3 2zM212 456l4 1h7l-11-1zM310 457h-1l-1 1c1 1 2 1 3-1l1-2-2 2zM316 456l2 2h1l-1-1-2-1zM293 458l-2 2-1 1c2 0 5-3 4-4l-1 1zM239 461c-2 1-2 1 0 1l2-1v-1l-2 1zM317 463l1 1 1-1-2-1-1 1zM192 479c-1 0-1 3 1 6 1 1 3 2 7 2 7 1 10 1 10-2s-3-5-9-6h-9zm15 5c2 2-9 1-12-1l-1-2 13 3zM257 477l-3 4c0 1 5 2 12 2s8-2 3-7c-5-4-8-4-12 1zm9 1 3 2h-5c-5 0-6-1-4-3s3-1 6 1zM281 505c-2 6-3 7-6 5l-11-1c-11 0-13 1-13 4h2c1-1 4-2 11-2 10 0 10 0 12 2 2 3 2 5-1 12-2 4-2 4-1 7 2 3 6 3 7 0 1-2 1-2-1-4-2-1-2-2-1-4l3-12 3-8c1-1 1-1-1-1l-3 2zm-2 26c0 2-3 1-3-1-1-3-1-3 1-1l2 2zM318 504v1l1-1h-1zM346 508c-5 5-5 5-8 3-2-2-4-2-10-2l-10 1-1-1c0-2 0-2-4 0-2 1-6 2-13 2l-14 1h11l15-1c2 0 3 1 1 3h-16c-8 0-13 0-12 1l14 1c11 1 12 1 17-2s6-3 13-3c6 0 7 1 9 3l2 2 3-3c3-3 6-6 5-7l-2 1z"/><path d="M263 515c-5 0-11 2-11 3h5l11-2 7-1h-12zM285 530c1 1 2 2 1 3 0 3 3 7 5 7l4 1h1c0-2-1-3-3-3l-4-2-1-2a214 214 0 0 0 15-2l-14-1c-3-2-6-2-4-1zM309 535c-3 1 1 7 4 6l-1-2-3-2c0-2 7-1 9 1 3 2 3 2 4-1v-2l-1 1h-2c-2-2-7-2-10-1zM283 544c-2 1-2 1 0 1l5-1c2-1 2-1 0-1l-5 1zM309 545h2l-2-1v1zM27 296c-2 1-1 5 2 8l4 5c1 2 2 2 2 1l-4-5c-3-4-3-5-3-7 1-3 0-4-1-2z"/><path d="M32 297c0 3 4 9 5 9l3 4 9 11c7 7 8 10 6 10l-4-2c-3-3-4-1-1 2 4 5 3 5-1 4l-6-2c-4-4-3-2 0 3 5 5 8 12 8 14h-4c-3-1-3-1-5 1l-4 5c-2 2-2 2 0 2l4-4 4-4c6 3 7 1 4-6-2-5-2-7 2-7l3-2 2-2 1-3c0-2-1-5-6-10-7-6-10-11-10-12l5 2c4 2 4 2 6 1 1-2 2-2 4-1 6 3 8 6 14 26 1 4 1 4 1 1l-2-9-2-9-4-6c-2-3-2-5-2-8 1-4 0-5-2-3v4c1 4-1 4-4 0l-3-2-2 3-1 2c-2 0-8-5-9-8 0-2-1-3-3-3l-3-1c-1-3-3-2-3 0zm8 5c1 3 0 3-3 1l-2-3c1-1 4 0 5 2zM56 296v3h3c2-1 2-2 0-3h-3zM65 296c-2 2 0 2 1 0v-1l-1 1zM300 300l1 2 1-2-1-2-1 2zM323 305v1l1-3-1 1zM321 310v1l1-3-1 1zM25 315l-2 6 4-7c0-2 2-4 3-2 2 2 3 1 2-1-3-3-4-2-7 4zM336 313l-2 4 3-4c3-5 2-5-1 0zM250 313c0 3 3 7 4 7v-1c-1-1-3-3-3-5l-1-1z"/><path d="m58 315 2 7 2 8c1 4 5 11 6 10l-1-4-5-12c-3-10-4-13-4-9zM16 317c0 1-1 3-5 6l-6 4c0 1 6-2 9-5l5-2c3 2 3 1 1-2-3-5-4-5-4-1zM318 318h1v-2l-1 2zM330 323c-3 5-5 6-7 5l-1 1c0 2 4 1 6-2l6-9-4 5zM258 321l2 1 2-1-2-1-2 1zM276 324l-1 4c2 1 3-2 3-4s0-2-2 0zM18 326c-1 2 2 6 8 10s7 4 2-1l-6-7c-1-4-3-5-4-2zM320 325c-1 1 0 1 1 1l2-1-2-1-1 1zM29 327l2 5c2 4 4 6 3 2 0-2 0-2 3 1 4 5 4 5 2 1-3-6-10-12-10-10zM409 328v1l1-1h-1zM16 335c-2 2 2 10 5 11s3 1 2-2c-1-2-1-2-2-1-1 2-1 2-2 0 0-2-1-3-2-3l-1-2c0-2 1-2 3-1h4v-1c-1 1-3 0-4-1h-3z"/><path d="M25 341c3 2 8 7 9 11 2 3 3 3 2 0s-10-13-13-13l1 2zM22 384c2 3 4 5 4 3l-3-4-3-3 2 4zM14 389l-1 2 3-1 2-2c2-1 2-1 0-1l-4 2zM403 438c0 3 3 8 7 12l6 8c4 5 14 13 15 12l-2-3c-6-4-21-21-24-27-1-3-2-4-2-2zM5 456h2l-2-1v1zM11 459l4 5-1-2c-2-2-2-3-1-4v-1c-4-2-4-1-2 2zM21 462l9 5 3 2-2-2-16-9 5 4zM0 464l2 2c2 0 3 2 4 3 0 2 11 8 14 8l3 2c1 3 16 10 23 11a85 85 0 0 1 30 12l11 8c8 7 11 9 16 9l5 1c6 4 8 5 11 5 4 2 3 0-2-2-2-1-5-2-6-4-2-2-3-2-7-2-5 0-9-2-18-10-4-4-7-6-9-6l-6-3c-3-3-21-10-25-10s-20-7-21-10l-5-3-13-7c0-1-4-5-6-5l-1 1zM19 467l11 4-2-1-6-2c-4-2-5-3-3-1zM33 473c0 1 1 2 2 1v-1h-2z"/><path d="m0 474 27 17 8 2 8 4c4 3 7 4 16 6l9 2c3 2 14 11 17 15 4 3 10 6 11 4h6c5 1 6 2 10 6s6 4 9 1c2-3 5-2 8 3 4 5 6 8 6 6l-2-4c-2-1-3-4-3-5 0-2-3-4-6-4l-5 3-2 2-4-4c-4-3-5-4-13-5-8-2-10-2-13-5l-4-4-5-4c-8-7-9-8-16-9-11-2-14-3-18-6-2-2-6-3-10-4L4 475c-3-2-4-2-4-1zM49 479l7 3-13-6 6 3zM39 477l2 2c1 1 1 1 0 0l-2-2zM1 481l2 2 6 5c2 3 5 4 6 4 1-1 1 0 1 1-1 2 5 5 16 9 6 2 7 3 6 1l1-1 13 4-14-5-4-1-19-10-5-4c-3-3-9-7-9-5zm25 15 5 3c0 1-7-1-10-4s-2-3 4 1zM44 482l3 1-2-2c-2-1-2-1-1 1zM3 488l4 2c1 0-4-4-6-4l2 2zM65 487l2 1-2-1c-1-1-1-1 0 0zM70 488l1 1v-1l-1-1v1zM0 493l3 2 12 5 18 8c10 3 12 5 4 5-4 0-4 0-3 1l6 1c3-1 4-1 5 1l5 3h3l-4-1c-3-2-5-5-3-6 1-1 13 4 15 6 3 2 4 1 1-2l-19-7-28-11c-10-5-15-7-15-5zM198 504c5 5 7 5 13 3l4-2-5 1c-5 0-6 0-9-2l-5-2 2 2z"/><path d="M2 505c-3 2-2 2 4 2s19 4 23 8c2 3 15 8 19 8l19 9c18 9 24 12 34 15a484 484 0 0 1-56-26c-9-3-15-5-15-8-1-1-3-3-9-5-10-4-16-5-19-3zM51 508l6 2 9 6c7 6 12 8 5 2l-7-7c0-1-2-2-6-2l-7-2h-2l2 1zM214 510c1 1 0 4-2 6l-2 2c0 1 2 0 4-3 3-4 4-4 1-5h-1zM65 510l7 6c6 4 9 8 7 8v1l2 1c2-1 16 4 20 7 3 3 3 2-1-2l-10-5c-6-2-8-3-12-7s-13-10-13-9zM225 511l-1 6 1-3v-3zM201 513l2 5c0 1 0 2-3 4l-6 6c-2 7-2 7 0 10 2 2 2 2 1 0-2-5 0-11 6-16l3-3-1-4c-1-3-2-3-2-2zM0 518c0 2 10 5 52 19l27 8c9 3 11 4 7 7l-6 5c-2 2-3 2-3 8v9l-1 2h31c37 0 35 1 24-11-8-9-11-11-29-15l-12-4-18-6a1463 1463 0 0 1-72-22zm105 35 12 4c4 2 17 14 17 16l-27 1H80l1-8c0-6 0-7 2-8l5-4c4-4 5-4 16-1z"/><path d="M56 520s2 2 5 2l9 5 12 6a245 245 0 0 1 39 17l10 8c5 3 6 5 7 9 2 5 5 9 6 8l-3-8c-2-6-3-8-8-11l-10-8c-2-3-6-5-12-7a495 495 0 0 1-54-21h-1zM220 522c-5 0-6 2-3 6l3 4c0 2 7 12 13 20s20 22 22 22l1-1h4c7 2 7 1 0-2-4-2-8-6-13-11l-13-12c-5-4-5-7 0-4l5 2c4 0 8 3 17 14l10 11c1 0-1-4-10-14a175 175 0 0 1-12-17l-5-6-14-13-5 1zm7 3c4 2 11 9 11 11l4 5 4 4c-1 1-11-2-13-4-2-3-3-2-4 1l-2 2v-4l-2-5c-1 0-7-9-7-11l9 1zM209 524c0 2 3 5 6 6l-1-2-3-4-1-1-1 1zM233 523l2 1c0 1 1 1 0 0l-2-1zM101 528l2 1 4 4 2 2c-1-3-5-8-7-8-1 0-2 0-1 1zM132 532c1 3 2 4 2 2l-2-3v1zM217 534l2 4c4 7 4 10 2 14l-2 4 2-3c4-4 4-5 1-11l-5-8zM251 536c-1 1-1 2 1 2l4 5 3 4-6-12-2 1zM245 537h3l-3-1v1zM114 537l2 1c0 1 1 1 0 0l-2-1z"/><path d="M120 541c2 2 7 4 10 4 1 0 4 1 6 4l11 9c5 1 5 2 0 2-4 0-4 0-4 3l2 6 1 3v-3l-2-5c0-2 0-2 4-1l5-1c1-2-1-5-4-6l-5-3-4-4c-2 0-3-2-4-3 0-2-1-3-6-3l-8-2c-2-2-4-2-2 0zM141 545c5 8 11 10 17 7h5c2 2 1 3-3 3l-5 1 5 1c5 0 6 0 6-2s-5-6-7-5c-6 2-14 0-16-5l-4-4 2 4zM178 540l1 1v-1l-1-1v1zM180 539c0 1 13 5 20 6 4 1 6 2 9 5 3 2 4 3 3 1-2-4-8-7-15-8l-11-3-6-1zM178 544l-2 1-2 1h2c2-1 5-4 3-4l-1 2zM422 547l-7 5-4 2v1c3 0 2 3-1 5l-8 1c-4 0-5 0-4 1 2 2 12 1 15 0l2-5c0-4 1-4 7-8 7-5 8-6 6-6l-6 4zM166 547c-2 1-2 1 0 1l4-1v-1l-4 1z"/><path d="m192 548 6 2c3 0 6 1 10 6l10 9c3 3 5 5 11 7 8 2 8 2 6 0l-7-3c-4-2-8-4-15-12-8-8-10-9-13-9l-6-1-2 1zM112 550l5 1-2-2-5-1 2 2z"/><path d="M186 549a799 799 0 0 1 18 23l2 3v-3l-5-7-4-5-4-4-3-4 5 1c3 1 5 2 7 5 1 2 3 4 6 5 4 1 8 5 8 6l2 4c2 2 2 1 0-4-2-4-3-5-7-7l-8-5c-1-3-12-9-15-9l-2 1zM266 549l3 1 3 1-3-1-3-1zM328 552l2 6 2 10c1 5 2 6 2 4 1-1 1-4-1-9l-3-11c0-4-2-4-2 0zM256 552l4 1c4 1 10 4 10 6l3 3 3 7 1 4v-4c0-4 0-5-5-11-6-5-6-5-11-6h-5zM214 555l2 1-2-1c-1-1-1-1 0 0zM182 556v7c1 2 6 4 7 3l1-4c-1-2-1-2-1 1 0 4-1 4-4 0-4-4-4-6-1-6 2 0 2 0 1-1h-3zM275 556l1 1v-1l-1-1-1 1zM155 561l9 12-3-6c-4-6-6-8-6-6zM222 562h4l-3-1c-2 0-2 0-1 1zM279 562l1 4 1 1-1-4c0-2-1-2-1-1zM337 567l1 6v-9c-1-2-1-1-1 3zM383 564l-3 2 5-2 2-2-4 2zM230 564l3 3 3 2-6-6v1zM286 566l2 3 1 3v-3l-2-4-1 1zM377 568v4l2-6-2 2zM172 571l1 3 1-1c0-2 3-2 7 0h4c0-1-7-5-10-5s-3 1-3 3zM237 571l2 1h1c-1-2-3-3-3-1z"/><path d="m292 571-1 3v2h-67l37 1c21 0 36 0 35-1-3 0-3-1-2-2h4l1 2 2 1c2 0 2 0 0-3s-5-5-9-3z"/></svg>