<?xml version="1.0" encoding="UTF-8"?>
<svg xmlns="http://www.w3.org/2000/svg" xmlns:xlink="http://www.w3.org/1999/xlink" width="433px" height="577px" viewBox="0 0 433 577" version="1.1">
<g id="surface1">
<path style=" stroke:none;fill-rule:evenodd;fill:rgb(0%,0%,0%);fill-opacity:1;" d="M 290.109375 28.878906 C 288.324219 29.199219 284.589844 29.789062 281.8125 30.1875 C 274.167969 31.292969 268.417969 32.511719 265.210938 33.710938 C 251.285156 38.917969 231.855469 51.726562 224.929688 60.265625 C 220.3125 65.953125 214.800781 77.398438 212.804688 85.441406 C 212.414062 87.011719 211.824219 88.632812 211.496094 89.046875 C 208.996094 92.1875 201.53125 131.140625 202.378906 136.640625 L 202.824219 139.5625 L 199.863281 136.136719 C 197.199219 133.050781 196.597656 132.710938 193.835938 132.710938 C 190.277344 132.710938 188.023438 134.601562 186.894531 138.539062 C 185.261719 144.226562 186.632812 144.917969 188.988281 139.59375 C 190.753906 135.605469 192.742188 134.421875 195.65625 135.628906 C 196.820312 136.113281 198.4375 137.4375 199.246094 138.574219 C 201.019531 141.0625 203.3125 141.269531 204.148438 139.019531 C 204.480469 138.128906 204.972656 134.476562 205.246094 130.90625 C 205.800781 123.644531 210.0625 101.492188 212.183594 94.84375 C 218.34375 75.53125 223.042969 65.871094 229.507812 59.210938 C 236.546875 51.960938 253.101562 41.398438 265.148438 36.472656 C 272.773438 33.355469 292.273438 30.628906 302.667969 31.230469 C 311.867188 31.761719 317.023438 33.367188 328.652344 39.316406 C 347.847656 49.136719 359.050781 58.503906 368.5 72.625 C 375.226562 82.683594 379.628906 92.382812 382.519531 103.53125 C 384.5 111.164062 384.800781 113.691406 385.160156 125.570312 C 385.519531 137.429688 385.382812 139.957031 383.988281 147.320312 C 383.050781 152.296875 382.5 157.636719 382.628906 160.578125 L 382.84375 165.5 L 389.339844 169.28125 C 392.910156 171.359375 396.632812 173.410156 397.609375 173.839844 L 399.382812 174.621094 L 397.65625 175.484375 C 396.710938 175.957031 395.703125 177.210938 395.421875 178.269531 C 394.824219 180.503906 396.351562 182.195312 402.46875 186.066406 C 404.53125 187.371094 406.378906 188.863281 406.582031 189.386719 C 407.042969 190.589844 411.175781 192.753906 412.300781 192.378906 C 413.550781 191.960938 404.839844 183.542969 401.554688 181.996094 C 398.21875 180.425781 397.3125 178.148438 400.023438 178.148438 C 402.175781 178.148438 407.019531 176.207031 407.019531 175.34375 C 407.019531 174.3125 405.378906 173.292969 402.425781 172.488281 C 400.890625 172.070312 398.988281 171.144531 398.203125 170.429688 C 397.414062 169.714844 394.125 167.835938 390.890625 166.25 L 385.007812 163.363281 L 385.246094 157.59375 C 385.378906 154.417969 385.957031 149.730469 386.53125 147.171875 C 388.003906 140.636719 387.972656 117.574219 386.484375 109.925781 C 381.886719 86.351562 371.777344 68.136719 355.378906 53.898438 C 346.722656 46.375 340.488281 42.3125 327.023438 35.414062 C 326.167969 34.976562 324.769531 34.261719 323.910156 33.820312 C 315.703125 29.609375 299.378906 27.222656 290.109375 28.878906 M 146.011719 97.929688 C 145.113281 98.5 141.113281 106.875 138.871094 112.875 C 138.132812 114.859375 136.71875 117.132812 135.730469 117.925781 C 132.011719 120.917969 126.730469 124 124.566406 124.445312 C 123.332031 124.699219 120.050781 125.730469 117.269531 126.734375 C 112.449219 128.480469 111.460938 128.570312 95.621094 128.652344 C 86.492188 128.703125 77.238281 128.476562 75.054688 128.148438 C 71.535156 127.621094 70.898438 127.726562 69.460938 129.078125 C 68.566406 129.917969 67.835938 131.207031 67.835938 131.941406 C 67.835938 132.679688 69.648438 135.601562 71.867188 138.429688 C 74.082031 141.261719 76.714844 145.59375 77.714844 148.054688 C 78.714844 150.515625 80.410156 153.667969 81.476562 155.0625 C 85.703125 160.566406 86.082031 161.59375 86.445312 168.582031 C 86.792969 175.15625 86.859375 175.371094 89.179688 177.285156 C 90.542969 178.40625 92.804688 181.761719 94.476562 185.148438 C 98.820312 193.9375 103.628906 198.035156 111.253906 199.4375 C 115.617188 200.238281 118.65625 204.78125 114.882812 204.859375 C 110.621094 204.949219 107.464844 210.042969 106.960938 217.636719 L 106.617188 222.867188 L 103.234375 222.867188 C 97.964844 222.867188 92.867188 224.734375 88.546875 228.253906 C 85.414062 230.804688 84.03125 232.675781 81.683594 237.539062 C 78.976562 243.152344 78.167969 244.125 71.308594 249.980469 C 67.214844 253.472656 60.769531 259.265625 56.984375 262.855469 C 53.199219 266.449219 47.675781 270.988281 44.714844 272.941406 C 32.039062 281.3125 23.972656 289.164062 19.847656 297.15625 C 19.132812 298.542969 14.371094 303.792969 9.273438 308.824219 C 3.328125 314.691406 0 318.507812 0 319.464844 C 0 320.285156 0.148438 320.957031 0.328125 320.957031 C 0.511719 320.957031 4.988281 316.65625 10.277344 311.398438 C 16.332031 305.382812 21.402344 299.570312 23.964844 295.710938 C 27.871094 289.828125 33.613281 283.5 36.632812 281.753906 C 42.707031 278.238281 52.171875 270.878906 58.949219 264.398438 C 63.386719 260.152344 68.257812 255.773438 69.773438 254.667969 C 76.277344 249.925781 81.929688 243.933594 83.210938 240.421875 C 85.035156 235.414062 88.910156 230.476562 92.804688 228.195312 C 95.472656 226.632812 97.351562 226.15625 101.820312 225.894531 C 108.917969 225.484375 109.460938 224.9375 109.804688 217.816406 C 110.101562 211.613281 112.125 207.71875 115.042969 207.71875 C 117.042969 207.71875 119.074219 205.625 119.074219 203.570312 C 119.074219 200.832031 115.777344 197.839844 111.671875 196.863281 C 104.507812 195.152344 100.414062 191.355469 96.152344 182.476562 C 94.8125 179.679688 92.867188 176.972656 91.335938 175.773438 C 88.847656 173.828125 88.765625 173.601562 88.746094 168.921875 C 88.722656 162.167969 87.886719 159.230469 84.683594 154.660156 C 81.277344 149.796875 81.328125 149.890625 79.078125 144.730469 C 78.070312 142.414062 75.761719 138.875 73.953125 136.863281 C 69.734375 132.171875 69.902344 130.867188 74.707031 131.023438 C 76.683594 131.085938 85.769531 131.164062 94.898438 131.191406 L 111.496094 131.25 L 120.878906 128.222656 C 126.039062 126.558594 131.722656 124.246094 133.507812 123.082031 C 137.179688 120.691406 140.726562 117.089844 140.726562 115.753906 C 140.726562 114.675781 146.414062 101.617188 147.300781 100.65625 C 147.6875 100.238281 148.960938 100.472656 150.617188 101.261719 C 155.675781 103.671875 158.613281 106.640625 161.265625 112.007812 C 164.082031 117.714844 165.351562 119.585938 168.328125 122.410156 C 169.417969 123.445312 170.3125 124.609375 170.3125 125 C 170.3125 125.386719 172.902344 128.398438 176.0625 131.6875 C 179.355469 135.117188 182 138.539062 182.257812 139.699219 C 183.410156 144.9375 184.488281 145 184.128906 139.808594 C 183.882812 136.28125 183.589844 135.800781 178.535156 130.617188 C 175.601562 127.605469 173.199219 124.917969 173.199219 124.640625 C 173.199219 124.363281 171.546875 122.253906 169.53125 119.949219 C 167.511719 117.644531 164.777344 113.410156 163.449219 110.539062 C 160.707031 104.617188 158.761719 102.625 152.699219 99.539062 C 148.207031 97.253906 147.386719 97.054688 146.011719 97.929688 M 409.90625 203.730469 C 409.90625 203.914062 410.890625 205.128906 412.09375 206.433594 C 413.296875 207.734375 415.085938 209.675781 416.0625 210.738281 C 418.089844 212.945312 418.339844 213.835938 416.761719 213.230469 C 414.914062 212.519531 415.53125 214.9375 417.726562 216.988281 C 420.46875 219.550781 420.765625 220.738281 419.179688 222.785156 C 417.347656 225.140625 417.496094 226.460938 419.996094 230.152344 C 421.179688 231.894531 422.15625 233.910156 422.160156 234.625 C 422.167969 235.339844 422.988281 237.121094 423.980469 238.578125 C 424.972656 240.039062 425.785156 242.0625 425.785156 243.074219 C 425.785156 244.265625 426.917969 246.121094 428.996094 248.316406 C 430.761719 250.1875 432.386719 251.714844 432.605469 251.714844 C 433.675781 251.714844 432.789062 248.691406 431.144531 246.738281 C 430.125 245.527344 429.164062 243.542969 429.011719 242.332031 C 428.859375 241.117188 428.003906 239.105469 427.113281 237.855469 C 426.222656 236.605469 425.5625 234.730469 425.640625 233.6875 C 425.738281 232.402344 425.089844 231.128906 423.621094 229.71875 C 421.222656 227.425781 420.972656 226.085938 422.558594 223.992188 C 424.121094 221.925781 423.855469 219.652344 421.761719 217.164062 C 420.585938 215.769531 420.058594 214.46875 420.328125 213.625 C 421.128906 211.101562 414.144531 203.390625 411.058594 203.390625 C 410.425781 203.390625 409.90625 203.542969 409.90625 203.730469 M 82.101562 388.058594 C 80.621094 388.847656 76.5625 390.164062 73.082031 390.984375 C 69.601562 391.800781 66.035156 392.933594 65.15625 393.496094 C 64.277344 394.0625 62.492188 394.535156 61.1875 394.546875 C 59.882812 394.558594 57.515625 395.367188 55.929688 396.34375 C 53.785156 397.667969 52.023438 398.125 49.078125 398.125 C 45.773438 398.128906 44.515625 398.535156 41.503906 400.570312 C 39.515625 401.910156 34.152344 405.460938 29.589844 408.457031 C 18.851562 415.503906 16.597656 417.496094 16.597656 419.929688 C 16.597656 422.691406 38.429688 444.394531 45.277344 448.445312 C 57.933594 455.933594 73.078125 462.65625 90.539062 468.542969 C 101.082031 472.097656 102.132812 472.246094 103.152344 470.339844 C 103.96875 468.8125 100.234375 454.101562 95.625 440.683594 C 90.078125 424.542969 89.261719 419.6875 89.191406 402.457031 L 89.125 386.949219 L 86.960938 386.785156 C 85.769531 386.691406 83.585938 387.265625 82.101562 388.058594 M 86.835938 404.6875 C 86.976562 414.539062 87.402344 421.433594 88.015625 423.734375 C 90.136719 431.730469 91.824219 437.53125 92.519531 439.242188 C 92.921875 440.234375 93.679688 442.503906 94.203125 444.289062 C 94.726562 446.074219 95.839844 449.808594 96.675781 452.585938 C 98.898438 459.96875 101.035156 467.945312 101.035156 468.875 C 101.035156 469.375 100.542969 469.480469 99.769531 469.148438 C 99.074219 468.851562 95.421875 467.542969 91.652344 466.242188 C 87.882812 464.941406 82.359375 463.011719 79.382812 461.957031 C 71.429688 459.140625 48.417969 447.636719 43.511719 444.027344 C 37.242188 439.414062 19.484375 421.808594 19.484375 420.203125 C 19.484375 418.5 19.445312 418.535156 34.457031 408.5625 C 46.355469 400.65625 47.070312 400.292969 50.695312 400.285156 C 53.398438 400.277344 55.386719 399.761719 57.625 398.480469 C 59.355469 397.496094 61.71875 396.6875 62.882812 396.6875 C 64.046875 396.6875 65.753906 396.195312 66.675781 395.589844 C 67.597656 394.988281 70.835938 394.019531 73.871094 393.4375 C 76.910156 392.859375 80.933594 391.597656 82.816406 390.636719 C 84.699219 389.679688 86.324219 388.972656 86.425781 389.070312 C 86.53125 389.167969 86.714844 396.199219 86.835938 404.6875 M 393.863281 421.75 C 393.253906 422.445312 392.027344 424.472656 391.136719 426.257812 C 390.246094 428.042969 388.265625 431.621094 386.738281 434.207031 C 385.210938 436.792969 382.855469 442.308594 381.503906 446.464844 C 378.75 454.953125 375.304688 463.617188 372.332031 469.535156 C 369.808594 474.554688 363.316406 493.96875 358.21875 511.726562 C 354.695312 524.007812 352.464844 530.835938 346.742188 546.878906 C 344.765625 552.421875 343.851562 558.066406 344.507812 560.675781 C 345.195312 563.417969 348.050781 563.628906 356.601562 561.582031 C 368 558.847656 376.355469 558.46875 384.164062 560.332031 C 387.667969 561.167969 391.40625 561.855469 392.476562 561.855469 C 393.542969 561.855469 396.578125 560.589844 399.21875 559.046875 C 407.640625 554.128906 424.605469 542.292969 427.378906 539.402344 C 428.851562 537.867188 430.71875 536.609375 431.527344 536.609375 C 432.355469 536.609375 433 536.136719 433 535.527344 C 433 534.789062 432.261719 534.449219 430.65625 534.449219 C 428.796875 534.453125 427.605469 535.183594 424.917969 537.964844 C 423.054688 539.898438 420.023438 542.359375 418.1875 543.433594 C 416.351562 544.511719 412.695312 546.902344 410.066406 548.753906 C 403.757812 553.1875 398.679688 556.421875 395.007812 558.339844 C 392.019531 559.902344 392.003906 559.902344 388.152344 558.542969 C 382.308594 556.484375 364.019531 556.699219 356.644531 558.914062 C 353.742188 559.785156 350.332031 560.394531 349.066406 560.273438 C 346.832031 560.058594 346.765625 559.953125 346.90625 556.875 C 347.078125 553.234375 350.003906 543.910156 352.929688 537.691406 C 353.550781 536.371094 357.074219 524.828125 360.96875 511.367188 C 366.695312 491.558594 372.027344 476.0625 375.546875 468.996094 C 376.582031 466.914062 377.433594 464.933594 377.433594 464.589844 C 377.433594 464.246094 378.4375 461.746094 379.667969 459.039062 C 380.894531 456.328125 382.851562 451.023438 384.011719 447.253906 C 385.175781 443.484375 387.054688 438.917969 388.195312 437.113281 C 389.332031 435.308594 391.582031 431.089844 393.195312 427.738281 C 395.464844 423.027344 396.234375 421.960938 396.589844 423.050781 C 398.03125 427.445312 398.773438 429.101562 400.625 432.078125 C 401.75 433.890625 402.886719 436.488281 403.148438 437.851562 C 403.921875 441.898438 406.691406 446.613281 410.210938 449.886719 C 412.027344 451.574219 413.515625 453.613281 413.515625 454.410156 C 413.515625 455.207031 414.289062 457.082031 415.230469 458.578125 C 417.800781 462.640625 428.378906 470.253906 431.460938 470.253906 C 433.503906 470.253906 433.441406 468.324219 431.375 467.683594 C 428.53125 466.804688 418.582031 459.394531 417.558594 457.394531 C 417.019531 456.335938 416.351562 454.421875 416.074219 453.140625 C 415.761719 451.691406 414.402344 449.777344 412.480469 448.089844 C 409.253906 445.25 406.136719 439.917969 405.214844 435.667969 C 404.917969 434.296875 403.597656 431.609375 402.28125 429.699219 C 400.964844 427.785156 399.667969 425.5 399.398438 424.617188 C 398.785156 422.601562 396.960938 420.488281 395.835938 420.488281 C 395.363281 420.488281 394.476562 421.058594 393.863281 421.75 M 0 519.285156 C 0 520.226562 0.648438 520.878906 1.894531 521.191406 C 2.933594 521.449219 6.414062 522.753906 9.625 524.089844 C 12.835938 525.421875 15.835938 526.511719 16.292969 526.511719 C 16.753906 526.511719 18.714844 527.144531 20.652344 527.914062 C 22.589844 528.683594 30.019531 531.140625 37.164062 533.375 C 59.949219 540.496094 64.90625 541.988281 70.722656 543.480469 C 73.304688 544.144531 77.234375 545.300781 79.457031 546.058594 C 81.679688 546.8125 83.953125 547.4375 84.507812 547.445312 C 85.0625 547.453125 86.308594 548.070312 87.277344 548.8125 L 89.039062 550.164062 L 83.808594 553.546875 C 77.707031 557.492188 76.953125 558.90625 77.40625 565.542969 C 77.625 568.707031 77.414062 570.894531 76.78125 572.035156 C 75.339844 574.628906 75.511719 577 77.136719 577 C 78.875 577 79.503906 574.292969 79.640625 566.179688 C 79.695312 562.808594 80.007812 559.640625 80.335938 559.140625 C 80.660156 558.636719 82.28125 557.546875 83.941406 556.714844 C 90.175781 553.59375 92.507812 549.746094 89.667969 547.273438 C 88.320312 546.097656 79.871094 543.203125 72.167969 541.273438 C 59.632812 538.136719 21.191406 525.761719 7.425781 520.429688 C 3.769531 519.015625 0.601562 517.859375 0.386719 517.859375 C 0.175781 517.859375 0 518.5 0 519.285156 "/>
</g>
</svg>
